# xmcd CD database file
#
# Track frame offsets:
#	150
#	12491
#	25621
#	36576
#	49736
#	67843
#	81612
#	93975
#	115218
#	131024
#	148897
#	164552
#	177307
#	194377
#	210411
#	225160
#	245472
#	259778
#	282097
#	294790
#	306259
#
# Disc length: 4288 seconds
#
# Revision: 0
# Processed by: cddbd v1.5.2PL0 Copyright (c) Steve Scherf et al.
# Submitted via: jetAudio 7
#
DISCID=2c10be15
DTITLE=Various Artist - The Essential Country Collection
DYEAR=1900
DGENRE=Country
TTITLE0=Walk The Line
TTITLE1=I Will Always Love You
TTITLE2=Only The Lonely
TTITLE3=Behind Closed Doors
TTITLE4=Amazed
TTITLE5=Highwaymen
TTITLE6=Some Broken Hearts Never Mend
TTITLE7=Dreaming My Dreams
TTITLE8=Games People Play
TTITLE9=Blue Bayou
TTITLE10=I Want You To Want Me
TTITLE11=I'll Never Fall In Love Again
TTITLE12=Prop Me Up Beside The Jukebox
TTITLE13=Blanket On The Ground
TTITLE14=Let Your Love Flow
TTITLE15=Copperhead Road
TTITLE16=Take Me Home, Country Roads
TTITLE17=Diamond In The Rough
TTITLE18=Ruby Don't Take Your Love To Town
TTITLE19=All I Have To Do Is Dream
TTITLE20=Harper Valley P.T.A
EXTD=
EXTT0=
EXTT1=
EXTT2=
EXTT3=
EXTT4=
EXTT5=
EXTT6=
EXTT7=
EXTT8=
EXTT9=
EXTT10=
EXTT11=
EXTT12=
EXTT13=
EXTT14=
EXTT15=
EXTT16=
EXTT17=
EXTT18=
EXTT19=
EXTT20=
PLAYORDER=
